<svg xmlns="http://www.w3.org/2000/svg" xmlns:xlink="http://www.w3.org/1999/xlink"><symbol id="icon-close" viewBox="0 0 20 20"><g fill="none"><path d="M.293 18.291a1 1 0 101.414 1.414L10 11.413l8.292 8.292a1 1 0 101.414-1.414l-8.292-8.292 8.292-8.292A1 1 0 1018.291.293L9.999 8.585 1.707.293A1 1 0 10.293 1.707L8.585 10 .293 18.291z"/></g></symbol><symbol id="logo" viewBox="0 0 70 38"><path fill-rule="evenodd" clip-rule="evenodd" d="M0.903517 31.125L14.6726 12.5429L18.4395 14.556L27.4026 0L32.9879 6.65881L35.0665 4.95532L43.1199 15.1755L48.8355 8.36191L64.8126 31.125L49.42 11.7689L47.0817 19.8984L49.225 26.3249L35.456 7.35558L35.3069 13.8279L43.1199 31.125L28.5064 4.33574L32.7282 18.8145L26.8181 4.72292L23.5706 14.0916L24.2198 7.97472L16.1013 30.0411L17.0753 20.75L13.6981 17.0338L0.903517 31.125Z"/><path fill-rule="evenodd" clip-rule="evenodd" d="M69.4414 34.0314C47.641 16.428 13.7091 40.6289 0 31.2961C15.0723 44.5215 50.3019 22.1644 69.4414 34.0314Z"/><path fill-rule="evenodd" clip-rule="evenodd" d="M70 35.4157C52.8956 24.5171 27.4568 39.6838 14.4189 36.1717C28.5467 43.0283 54.8482 27.8361 70 35.4157Z"/></symbol></svg>